<svg xmlns="http://www.w3.org/2000/svg" viewBox="0 0 400 400" width="400" height="400" role="presentation" aria-hidden="true">
  <defs>
    <radialGradient id="gem" cx="0.35" cy="0.3" r="0.9">
      <stop offset="0%" stop-color="#7be0bd" stop-opacity="0.95"/>
      <stop offset="55%" stop-color="#20B780" stop-opacity="0.85"/>
      <stop offset="100%" stop-color="#033c3f" stop-opacity="1"/>
    </radialGradient>
    <linearGradient id="facet" x1="0" y1="0" x2="1" y2="1">
      <stop offset="0%" stop-color="#ffffff" stop-opacity="0.18"/>
      <stop offset="100%" stop-color="#ffffff" stop-opacity="0"/>
    </linearGradient>
  </defs>
  <g transform="translate(200 200)">
    <polygon points="0,-180 156,-90 156,90 0,180 -156,90 -156,-90" fill="url(#gem)"/>
    <polygon points="0,-180 156,-90 0,0 -156,-90" fill="url(#facet)"/>
    <polygon points="0,-180 0,0 -156,-90" fill="#ffffff" fill-opacity="0.08"/>
    <polygon points="156,-90 156,90 0,0" fill="#033c3f" fill-opacity="0.12"/>
    <polygon points="-156,-90 -156,90 0,0" fill="#033c3f" fill-opacity="0.22"/>
    <polygon points="0,180 156,90 0,0 -156,90" fill="#033c3f" fill-opacity="0.35"/>
    <line x1="0" y1="-180" x2="0" y2="0" stroke="#ffffff" stroke-opacity="0.25" stroke-width="0.6"/>
    <line x1="156" y1="-90" x2="0" y2="0" stroke="#ffffff" stroke-opacity="0.2" stroke-width="0.6"/>
    <line x1="-156" y1="-90" x2="0" y2="0" stroke="#ffffff" stroke-opacity="0.2" stroke-width="0.6"/>
    <line x1="156" y1="90" x2="0" y2="0" stroke="#ffffff" stroke-opacity="0.15" stroke-width="0.6"/>
    <line x1="-156" y1="90" x2="0" y2="0" stroke="#ffffff" stroke-opacity="0.15" stroke-width="0.6"/>
    <line x1="0" y1="180" x2="0" y2="0" stroke="#ffffff" stroke-opacity="0.12" stroke-width="0.6"/>
  </g>
</svg>
